<?xml version="1.0" encoding="utf-8"?>
<!-- Generator: Adobe Illustrator 23.0.0, SVG Export Plug-In . SVG Version: 6.00 Build 0)  -->
<svg version="1.1" id="Layer_1" xmlns="http://www.w3.org/2000/svg" xmlns:xlink="http://www.w3.org/1999/xlink" x="0px" y="0px"
	 viewBox="0 0 230 231" style="enable-background:new 0 0 230 231;" xml:space="preserve">
<style type="text/css">
	.st0{clip-path:url(#SVGID_2_);}
	.st1{fill:url(#SVGID_3_);}
	.st2{fill:url(#SVGID_4_);}
</style>
<g>
	<defs>
		<rect id="SVGID_1_" width="230" height="231"/>
	</defs>
	<clipPath id="SVGID_2_">
		<use xlink:href="#SVGID_1_"  style="overflow:visible;"/>
	</clipPath>
	<g transform="matrix(1 0 0 1 0 0)" class="st0">
		
			<image style="overflow:visible;" width="2480" height="3508" xlink:href="Email.png"  transform="matrix(9.286148e-02 0 0 9.286148e-02 0 -45)">
		</image>
	</g>
	<g class="st0">
		
			<linearGradient id="SVGID_3_" gradientUnits="userSpaceOnUse" x1="-371.2057" y1="475.666" x2="-340.749" y2="475.666" gradientTransform="matrix(-1 0 0 -1 -268 575)">
			<stop  offset="0" style="stop-color:#2C8AC4"/>
			<stop  offset="1" style="stop-color:#203868"/>
		</linearGradient>
		<path class="st1" d="M73.9,87.6l2.4-2.4c1.5-1.5,4-1.5,5.5,0l20.2,20.2c1.5,1.5,1.5,4,0,5.5l-2.4,2.4c-1.5,1.5-4,1.5-5.5,0
			L73.9,93.2C72.4,91.7,72.4,89.2,73.9,87.6z"/>
		<linearGradient id="SVGID_4_" gradientUnits="userSpaceOnUse" x1="91.2573" y1="81.8789" x2="156.6097" y2="81.8789">
			<stop  offset="0" style="stop-color:#2C8AC4"/>
			<stop  offset="1" style="stop-color:#203868"/>
		</linearGradient>
		<path class="st2" d="M94,113.2l-1.4-1.4c-1.8-1.8-1.8-4.7,0-6.5l54.7-54.7c1.8-1.8,4.7-1.8,6.5,0l1.4,1.4c1.8,1.8,1.8,4.7,0,6.5
			l-54.7,54.7C98.7,115,95.8,115,94,113.2z"/>
	</g>
</g>
</svg>
