<?xml version="1.0" encoding="utf-8"?>
<!-- Generator: Adobe Illustrator 23.0.0, SVG Export Plug-In . SVG Version: 6.00 Build 0)  -->
<svg version="1.1" id="Layer_1" xmlns="http://www.w3.org/2000/svg" xmlns:xlink="http://www.w3.org/1999/xlink" x="0px" y="0px"
	 viewBox="0 0 364.7 849.1" style="enable-background:new 0 0 364.7 849.1;" xml:space="preserve">
<style type="text/css">
	.st0{fill:#F8C09D;}
	.st1{fill:#1A1A1A;}
	.st2{fill:#443833;}
	.st3{fill:#F2F2F2;}
	.st4{fill:#44A0C1;}
	.st5{fill:#FFFFFF;}
	.st6{fill:#703B21;}
	.st7{fill:#F6AE8D;}
	.st8{fill:#EF937E;}
	.st9{fill:none;stroke:#91A89D;stroke-width:2.9104;stroke-miterlimit:10;}
	.st10{fill:none;stroke:#91A89D;stroke-width:2.9104;stroke-linecap:round;stroke-miterlimit:10;}
	.st11{fill:#E26C60;}
	.st12{fill:#333333;}
	.st13{fill:#738891;}
	.st14{fill:none;stroke:#FFFFFF;stroke-width:2.4831;stroke-miterlimit:10;}
	.st15{fill:none;stroke:#1A1A1A;stroke-width:4.9663;stroke-miterlimit:10;}
	.st16{fill:none;stroke:#1A1A1A;stroke-width:5.6022;stroke-miterlimit:10;}
	.st17{fill:#CCCCCC;}
</style>
<g>
	<polygon class="st0" points="189.3,786.3 168.3,786.3 122.3,444.3 189.3,444.3 	"/>
	<polygon class="st0" points="209.4,786.3 230.4,786.3 269.4,444.3 203.3,444.3 	"/>
	<path class="st0" d="M209.4,786.3l-10,44.8c0,0,1,14.9,12.6,14.9s13.9-11.3,15.9-21.4c1.9-10,2.5-38.3,2.5-38.3H209.4z"/>
	<path class="st1" d="M235,796.7c-0.1,1.2,3.2,35.3,1.3,35.3c-2.9,0-5.9,0-5.9,0s3.5-31.4,2.3-35.3C231.5,792.9,235,796.7,235,796.7
		z"/>
	<path class="st2" d="M201.6,821.7c3.9-2.7,5.7-2.5,11.5-1.4s10.3,4.3,13.4,6.3s1.5-11.3,1.8-22.3s2.1-17.9,2.1-17.9l0.4-3.8
		c0,0,5.5,2.7,4.5,10.8s-3.2,30.5-2.9,40.2c0.3,9.7-13.9,14.5-26.2,14.8c-12.3,0.3-11.7-3.2-11.1-9.5
		C195.9,832.7,197.7,824.4,201.6,821.7z"/>
	<path class="st0" d="M168.3,786.3l-10,44.8c0,0,1,14.9,12.6,14.9s13.9-11.3,15.9-21.4c1.9-10,2.5-38.3,2.5-38.3H168.3z"/>
	<path class="st1" d="M193.9,796.7c-0.1,1.2,3.2,35.3,1.3,35.3c-2.9,0-5.9,0-5.9,0s3.5-31.4,2.3-35.3
		C190.4,792.9,193.9,796.7,193.9,796.7z"/>
	<path class="st2" d="M160.5,821.7c3.9-2.7,5.7-2.5,11.5-1.4s10.3,4.3,13.4,6.3c3.1,1.9,1.5-11.3,1.8-22.3s2.1-17.9,2.1-17.9
		l0.4-3.8c0,0,5.5,2.7,4.5,10.8s-3.2,30.5-2.9,40.2c0.3,9.7-13.9,14.5-26.2,14.8c-12.3,0.3-11.7-3.2-11.1-9.5
		C154.8,832.7,156.6,824.4,160.5,821.7z"/>
	<path class="st3" d="M261.6,368.8l15.9-110.2c0-17.5-10.8-31.6-24.2-31.6H149.8c-13.4,0-24.2,14.1-24.2,31.5l14.2,106.4
		c0,0-25.6,81.8-25.6,115.1s0,145,0,145h172c0,0,0-114.5,0-145S261.6,368.8,261.6,368.8z"/>
	<path class="st3" d="M295.6,235.2c0,0-12-8.1-40.4-8.7c-18.1-0.3,20.5,27.7,20.5,27.7L295.6,235.2z"/>
	<path class="st3" d="M164.4,218.2c0,0-45.8-2.9-53.3,13c-7.1,15.1,16.6,23.1,16.6,23.1L164.4,218.2z"/>
	<polygon class="st0" points="221.8,218.2 217.1,261.7 173.9,261.7 170.6,218.2 	"/>
	<path class="st4" d="M217.1,252.2c0,0-12.9,9.5-27.8,9.5s-17.7-9.5-17.7-9.5L183,316L217.1,252.2z"/>
	<polygon class="st5" points="170.6,218.2 183,315.9 151.7,252.7 159.7,244.9 149.5,234.3 	"/>
	<polygon class="st5" points="221.8,218.2 183,315.9 240.7,252.7 232.7,244.9 242.9,234.3 	"/>
	<path class="st3" d="M220.3,309.4h19.8c3.7,0,6.7-3,6.7-6.7v-4.3h-33.3v4.3C213.6,306.4,216.6,309.4,220.3,309.4z"/>
	<path class="st3" d="M103.2,378.1L103.2,378.1c10.1,1.5,19.5-5.4,21-15.4L142.7,242c1.5-10.1,2.4-23.6-8.1-22.4
		c-22.6,2.5-26.3,12.4-29.5,27.1L87.7,357.1C86.2,367.1,93.1,376.5,103.2,378.1z"/>
	<path class="st3" d="M317.2,383.9L317.2,383.9c9.8-2.6,15.7-12.7,13.1-22.6l-31.3-118c-2.6-9.8-12.7-15.7-22.6-13.1l0,0
		c-9.8,2.6-15.7,12.7-13.1,22.6l31.3,118C297.2,380.7,307.3,386.5,317.2,383.9z"/>
	<path class="st3" d="M116.6,375.2L116.6,375.2c7.8-6.6,8.7-18.3,2.1-26l-67.3-79l-28.1,23.9l67.3,79
		C97.2,380.8,108.9,381.8,116.6,375.2z"/>
	<circle class="st6" cx="261.4" cy="164.7" r="32.3"/>
	<path class="st6" d="M289.9,92.8c3,27.8-6.6,56.6-38.5,81.1c-36.4,27.9-89.9,1-111.4-19.8s-44.1-79.2-16.5-121l148.9,3.4
		C272.3,36.5,285.9,56.4,289.9,92.8z"/>
	<path class="st0" d="M171.6,215.8c0,13.4,10.9,24.5,24.3,24.5l0,0h0.2c13.4,0,24.5-11.1,24.5-24.5v-24.6h-49V215.8z"/>
	<path class="st7" d="M220.6,207.5c-8.4,4.3-16.6,8.2-23.9,8.2c-7.6,0-16.4-1.4-25.1-5.8v-16h49V207.5z"/>
	<path class="st0" d="M194.3,206.1c28,0,64-40,64-67V47.3H123.1v91.8C123.1,167.5,147.5,206.1,194.3,206.1z"/>
	<circle class="st0" cx="261" cy="126.7" r="17.7"/>
	<path class="st8" d="M264.5,129.2c0-3.5-2.8-6.3-6.3-6.3c-1,0-1.9,0.2-2.7,0.6c1.1-1.8,3.1-3.1,5.4-3.1c3.5,0,6.3,2.8,6.3,6.3
		c0,2.5-1.5,4.7-3.6,5.7C264.2,131.5,264.5,130.4,264.5,129.2z"/>
	<path class="st6" d="M150.6,63.6c0,0,30.3,17.7,55.3,22.9c26.7,5.6,50.8,1.2,50.8,1.2s35.3-21.6,12.9-55
		c-34.3-51.2-118.9-32.8-140.3-8.2c-22.4,25.9-8.8,68-8.8,68s5.4-0.5,13.9-10.1C144.7,70.8,150.6,63.6,150.6,63.6z"/>
	<path class="st9" d="M194.2,132.4h30.5c4.6,0,8.3-3.7,8.3-8.3v-13.5c0-4.6-3.7-8.3-8.3-8.3h-30.5c-4.6,0-8.3,3.7-8.3,8.3v13.5
		C185.9,128.7,189.6,132.4,194.2,132.4z"/>
	<path class="st9" d="M132.6,132.4h30.5c4.6,0,8.3-3.7,8.3-8.3v-13.5c0-4.6-3.7-8.3-8.3-8.3h-30.5c-4.6,0-8.3,3.7-8.3,8.3v13.5
		C124.2,128.7,128,132.4,132.6,132.4z"/>
	<path class="st9" d="M185.9,117.3c0,0.4-3-3.2-7.5-3.2s-7,3.4-7,3.4"/>
	<line class="st10" x1="261" y1="109" x2="233.1" y2="117.5"/>
	<path class="st11" d="M192,161.8c0,9-7.3,15.3-16.3,15.3l0,0c-9,0-16.3-6.3-16.3-15.3"/>
	<path class="st8" d="M179.6,148.6c0,0.6-0.7,1.1-1.4,1.1h-7.9c-2.2,0-3.3-2.5-2-4.2l9.2-11c0.7-0.8,2.1-0.3,2.1,0.7"/>
	<ellipse class="st12" cx="204.8" cy="117.5" rx="4.7" ry="8.3"/>
	<ellipse class="st12" cx="145.5" cy="117.5" rx="4.7" ry="8.3"/>
	<path class="st13" d="M343.3,499.8l-126.7-18.7c-5-0.7-8.4-5.4-7.7-10.4l11.6-78.1c0.7-5,5.4-8.4,10.4-7.7l126.7,18.7
		c5,0.7,8.4,5.4,7.7,10.4l-11.6,78.1C352.9,497,348.2,500.5,343.3,499.8z"/>
	<g>
		<path class="st0" d="M44.9,276.5L44.9,276.5c-2.8-0.9-4.4-3.8-3.5-6.6l7.2-23.3c0.9-2.8,3.8-4.4,6.6-3.5l0,0
			c2.8,0.9,4.4,3.8,3.5,6.6L51.5,273C50.7,275.8,47.7,277.4,44.9,276.5z"/>
		<path class="st0" d="M21.5,295.4l-6.3-5.9c-2.7-2.5-2.9-6.8-0.3-9.5l19.9-21.3c2.5-2.7,6.8-2.9,9.5-0.3l6.3,5.9
			c2.9,2.7,3,7.2,0.3,10.1l-19.3,20.7C28.9,297.9,24.4,298.1,21.5,295.4z"/>
		<path class="st0" d="M47.4,268.6L47.4,268.6c-2,2.1-5.4,2.3-7.5,0.3L3.8,235.3c-2.1-2-2.3-5.4-0.3-7.5l0,0c2-2.1,5.4-2.3,7.5-0.3
			l36.1,33.6C49.3,263.1,49.4,266.5,47.4,268.6z"/>
		<path class="st0" d="M36.6,273.1L36.6,273.1c-2,2.1-5.4,2.3-7.5,0.3l-17.8-16.7c-2.1-2-2.3-5.4-0.3-7.5l0,0c2-2.1,5.4-2.3,7.5-0.3
			l17.8,16.7C38.5,267.6,38.7,271,36.6,273.1z"/>
		<path class="st0" d="M31.3,282.7L31.3,282.7c-2,2.1-5.4,2.3-7.5,0.3L6,266.3c-2.1-2-2.3-5.4-0.3-7.5l0,0c2-2.1,5.4-2.3,7.5-0.3
			L31,275.2C33.2,277.2,33.4,280.6,31.3,282.7z"/>
		<path class="st0" d="M27,293.2L27,293.2c-2,2.1-5.4,2.3-7.5,0.3L1.7,276.8c-2.1-2-2.3-5.4-0.3-7.5l0,0c2-2.1,5.4-2.3,7.5-0.3
			l17.8,16.7C28.8,287.6,29,291,27,293.2z"/>
	</g>
	<path class="st3" d="M319,353.3L319,353.3c-9.7-3-20.1,2.5-23,12.3l-30.3,99.3l35.3,10.8l30.3-99.3
		C334.2,366.6,328.7,356.3,319,353.3z"/>
	<g>
		<path class="st0" d="M303.2,471.5l-1.4,8.3c-0.6,3.6-4,6-7.6,5.4l-28.2-4.8c-3.6-0.6-6-4-5.4-7.6l1.4-8.3c0.7-3.8,4.3-6.4,8.1-5.7
			l27.4,4.7C301.3,464.1,303.9,467.7,303.2,471.5z"/>
		<path class="st0" d="M267.6,460.6L267.6,460.6c2.8,0.5,4.8,3.2,4.3,6l-4,23.6c-0.5,2.8-3.2,4.8-6,4.3l0,0c-2.8-0.5-4.8-3.2-4.3-6
			l4-23.6C262.1,462,264.8,460.1,267.6,460.6z"/>
		<path class="st0" d="M277.1,467L277.1,467c2.8,0.5,4.8,3.2,4.3,6l-4,23.6c-0.5,2.8-3.2,4.8-6,4.3l0,0c-2.8-0.5-4.8-3.2-4.3-6
			l4-23.6C271.6,468.4,274.3,466.5,277.1,467z"/>
		<path class="st0" d="M287.9,466.2L287.9,466.2c2.8,0.5,4.8,3.2,4.3,6l-4,23.6c-0.5,2.8-3.2,4.8-6,4.3l0,0c-2.8-0.5-4.8-3.2-4.3-6
			l4-23.6C282.3,467.6,285,465.7,287.9,466.2z"/>
		<path class="st0" d="M298.8,464.1L298.8,464.1c2.8,0.5,4.8,3.2,4.3,6l-4,23.6c-0.5,2.8-3.2,4.8-6,4.3l0,0c-2.8-0.5-4.8-3.2-4.3-6
			l4-23.6C293.3,465.6,296,463.7,298.8,464.1z"/>
	</g>
	<polygon class="st4" points="168.8,625.9 186,552.5 202.6,625.9 	"/>
	<rect x="113.9" y="625.2" class="st4" width="171.5" height="25.6"/>
	<g>
		<path class="st14" d="M156.7,322.2l-10.5,1.2c-6.8-0.4-11-11.4-10.3-26.7l2-30.8c0.1-10.9,6.5-19.8,15.1-20.8l0.5-0.1
			c8.6-1,16.8,6.2,19.4,16.9l9.4,31.2c5.7,15.8-0.6,26.2-5.6,26.7l-8.8,1"/>
		<path class="st15" d="M136.7,284.7l1.2-18.6c1.1-11.7,6.5-19.6,15.1-20.6l0.5-0.1c8.6-1,15.5,6.4,19.3,16.7l5.4,17.9"/>
		<path d="M170,317.1l2.8-0.3c2-0.2,3.8,1.2,4,3.2l0.1,0.5c0.2,2-1.2,3.8-3.2,4l-2.8,0.3c-2,0.2-3.8-1.2-4-3.2l-0.1-0.5
			C166.6,319.1,168,317.3,170,317.1z"/>
		<path d="M151.5,319.2l2.8-0.3c2-0.2,3.8,1.2,4,3.2l0.1,0.5c0.2,2-1.2,3.8-3.2,4l-2.8,0.3c-2,0.2-3.8-1.2-4-3.2l-0.1-0.5
			C148,321.3,149.5,319.5,151.5,319.2z"/>
		<path class="st16" d="M171.4,215.7L171.4,215.7c-7.6-1.2-15.5,10.5-17.4,21.4l-0.4,2.9l-0.8,5.5"/>
		<path class="st16" d="M219.8,217.9L219.8,217.9c7.7-2,24.3,12.7,22.6,41.2c-1.3,22.2-6.3,36.3-6.3,36.3"/>
		
			<ellipse transform="matrix(0.9683 -0.2499 0.2499 0.9683 -67.5093 67.873)" class="st5" cx="233.5" cy="299.8" rx="12.9" ry="12.9"/>
		<ellipse transform="matrix(0.9683 -0.2499 0.2499 0.9683 -67.5093 67.873)" cx="233.5" cy="299.8" rx="8.1" ry="8.1"/>
		
			<ellipse transform="matrix(0.9683 -0.2499 0.2499 0.9683 -67.5093 67.873)" class="st17" cx="233.5" cy="299.8" rx="5.1" ry="5.1"/>
	</g>
</g>
</svg>
